<mxfile host="app.diagrams.net" modified="2023-05-06T11:28:08.513Z" agent="Mozilla/5.0 (Windows NT 10.0; Win64; x64) AppleWebKit/537.36 (KHTML, like Gecko) Chrome/112.0.0.0 Safari/537.36" etag="CMLvnNdYw-bEG-Kw4gmz" version="21.2.9" type="device">
  <diagram name="第 1 页" id="7G0hD0VEQEerGdSr2f6R">
    <mxGraphModel dx="1235" dy="636" grid="1" gridSize="10" guides="1" tooltips="1" connect="1" arrows="1" fold="1" page="1" pageScale="1" pageWidth="827" pageHeight="1169" math="0" shadow="0">
      <root>
        <mxCell id="0" />
        <mxCell id="1" parent="0" />
        <mxCell id="_WUSgy6V6YuaI1692tL7-1" value="" style="rounded=1;whiteSpace=wrap;html=1;fillColor=#fff2cc;strokeColor=#d6b656;" vertex="1" parent="1">
          <mxGeometry x="80" y="80" width="530" height="190" as="geometry" />
        </mxCell>
        <mxCell id="_WUSgy6V6YuaI1692tL7-2" value="axum" style="rounded=1;whiteSpace=wrap;html=1;" vertex="1" parent="1">
          <mxGeometry x="130" y="125" width="70" height="40" as="geometry" />
        </mxCell>
        <mxCell id="_WUSgy6V6YuaI1692tL7-3" value="serde" style="rounded=1;whiteSpace=wrap;html=1;" vertex="1" parent="1">
          <mxGeometry x="130" y="185" width="70" height="40" as="geometry" />
        </mxCell>
        <mxCell id="_WUSgy6V6YuaI1692tL7-5" value="tokio" style="rounded=1;whiteSpace=wrap;html=1;" vertex="1" parent="1">
          <mxGeometry x="220" y="125" width="70" height="40" as="geometry" />
        </mxCell>
        <mxCell id="_WUSgy6V6YuaI1692tL7-6" value="hyper" style="rounded=1;whiteSpace=wrap;html=1;" vertex="1" parent="1">
          <mxGeometry x="220" y="185" width="70" height="40" as="geometry" />
        </mxCell>
        <mxCell id="_WUSgy6V6YuaI1692tL7-7" value="tower" style="rounded=1;whiteSpace=wrap;html=1;" vertex="1" parent="1">
          <mxGeometry x="310" y="125" width="70" height="40" as="geometry" />
        </mxCell>
        <mxCell id="_WUSgy6V6YuaI1692tL7-8" value="cryptography" style="rounded=1;whiteSpace=wrap;html=1;" vertex="1" parent="1">
          <mxGeometry x="305" y="185" width="80" height="40" as="geometry" />
        </mxCell>
        <mxCell id="_WUSgy6V6YuaI1692tL7-9" value="lazy_static" style="rounded=1;whiteSpace=wrap;html=1;" vertex="1" parent="1">
          <mxGeometry x="400" y="125" width="70" height="40" as="geometry" />
        </mxCell>
        <mxCell id="_WUSgy6V6YuaI1692tL7-10" value="anyhow" style="rounded=1;whiteSpace=wrap;html=1;" vertex="1" parent="1">
          <mxGeometry x="400" y="185" width="70" height="40" as="geometry" />
        </mxCell>
        <mxCell id="_WUSgy6V6YuaI1692tL7-11" value="rbatis" style="rounded=1;whiteSpace=wrap;html=1;" vertex="1" parent="1">
          <mxGeometry x="490" y="125" width="70" height="40" as="geometry" />
        </mxCell>
        <mxCell id="_WUSgy6V6YuaI1692tL7-12" value="tonic" style="rounded=1;whiteSpace=wrap;html=1;" vertex="1" parent="1">
          <mxGeometry x="490" y="185" width="70" height="40" as="geometry" />
        </mxCell>
        <mxCell id="_WUSgy6V6YuaI1692tL7-13" value="……" style="rounded=1;whiteSpace=wrap;html=1;" vertex="1" parent="1">
          <mxGeometry x="310" y="230" width="70" height="40" as="geometry" />
        </mxCell>
        <mxCell id="_WUSgy6V6YuaI1692tL7-14" value="后端技术栈" style="text;html=1;strokeColor=none;fillColor=none;align=center;verticalAlign=middle;whiteSpace=wrap;rounded=0;" vertex="1" parent="1">
          <mxGeometry x="80" y="95" width="70" height="30" as="geometry" />
        </mxCell>
        <mxCell id="_WUSgy6V6YuaI1692tL7-15" value="" style="rounded=1;whiteSpace=wrap;html=1;fillColor=#dae8fc;strokeColor=#6c8ebf;" vertex="1" parent="1">
          <mxGeometry x="80" y="430" width="530" height="120" as="geometry" />
        </mxCell>
        <mxCell id="_WUSgy6V6YuaI1692tL7-16" value="mysql" style="rounded=1;whiteSpace=wrap;html=1;" vertex="1" parent="1">
          <mxGeometry x="130" y="470" width="70" height="40" as="geometry" />
        </mxCell>
        <mxCell id="_WUSgy6V6YuaI1692tL7-17" value="redis" style="rounded=1;whiteSpace=wrap;html=1;" vertex="1" parent="1">
          <mxGeometry x="220" y="470" width="70" height="40" as="geometry" />
        </mxCell>
        <mxCell id="_WUSgy6V6YuaI1692tL7-18" value="kafka" style="rounded=1;whiteSpace=wrap;html=1;" vertex="1" parent="1">
          <mxGeometry x="310" y="470" width="70" height="40" as="geometry" />
        </mxCell>
        <mxCell id="_WUSgy6V6YuaI1692tL7-19" value="ElasticSearch" style="rounded=1;whiteSpace=wrap;html=1;" vertex="1" parent="1">
          <mxGeometry x="395" y="470" width="80" height="40" as="geometry" />
        </mxCell>
        <mxCell id="_WUSgy6V6YuaI1692tL7-20" value="PostgreSQL" style="rounded=1;whiteSpace=wrap;html=1;" vertex="1" parent="1">
          <mxGeometry x="490" y="470" width="70" height="40" as="geometry" />
        </mxCell>
        <mxCell id="_WUSgy6V6YuaI1692tL7-21" value="……" style="rounded=1;whiteSpace=wrap;html=1;" vertex="1" parent="1">
          <mxGeometry x="310" y="510" width="70" height="40" as="geometry" />
        </mxCell>
        <mxCell id="_WUSgy6V6YuaI1692tL7-22" value="存储及缓存" style="text;html=1;strokeColor=none;fillColor=none;align=center;verticalAlign=middle;whiteSpace=wrap;rounded=0;" vertex="1" parent="1">
          <mxGeometry x="85" y="440" width="75" height="30" as="geometry" />
        </mxCell>
        <mxCell id="_WUSgy6V6YuaI1692tL7-24" value="" style="rounded=1;whiteSpace=wrap;html=1;fillColor=#d5e8d4;strokeColor=#82b366;" vertex="1" parent="1">
          <mxGeometry x="80" y="290" width="530" height="120" as="geometry" />
        </mxCell>
        <mxCell id="_WUSgy6V6YuaI1692tL7-25" value="channel" style="rounded=1;whiteSpace=wrap;html=1;" vertex="1" parent="1">
          <mxGeometry x="130" y="330" width="70" height="40" as="geometry" />
        </mxCell>
        <mxCell id="_WUSgy6V6YuaI1692tL7-26" value="mutex" style="rounded=1;whiteSpace=wrap;html=1;" vertex="1" parent="1">
          <mxGeometry x="220" y="330" width="70" height="40" as="geometry" />
        </mxCell>
        <mxCell id="_WUSgy6V6YuaI1692tL7-27" value="ast" style="rounded=1;whiteSpace=wrap;html=1;" vertex="1" parent="1">
          <mxGeometry x="310" y="330" width="70" height="40" as="geometry" />
        </mxCell>
        <mxCell id="_WUSgy6V6YuaI1692tL7-28" value="syn" style="rounded=1;whiteSpace=wrap;html=1;" vertex="1" parent="1">
          <mxGeometry x="395" y="330" width="80" height="40" as="geometry" />
        </mxCell>
        <mxCell id="_WUSgy6V6YuaI1692tL7-29" value="macro" style="rounded=1;whiteSpace=wrap;html=1;" vertex="1" parent="1">
          <mxGeometry x="490" y="330" width="70" height="40" as="geometry" />
        </mxCell>
        <mxCell id="_WUSgy6V6YuaI1692tL7-30" value="……" style="rounded=1;whiteSpace=wrap;html=1;" vertex="1" parent="1">
          <mxGeometry x="310" y="370" width="70" height="40" as="geometry" />
        </mxCell>
        <mxCell id="_WUSgy6V6YuaI1692tL7-31" value="其他技术" style="text;html=1;strokeColor=none;fillColor=none;align=center;verticalAlign=middle;whiteSpace=wrap;rounded=0;" vertex="1" parent="1">
          <mxGeometry x="85" y="300" width="75" height="30" as="geometry" />
        </mxCell>
        <mxCell id="_WUSgy6V6YuaI1692tL7-32" value="" style="rounded=1;whiteSpace=wrap;html=1;fillColor=#f8cecc;strokeColor=#b85450;" vertex="1" parent="1">
          <mxGeometry x="80" y="570" width="530" height="120" as="geometry" />
        </mxCell>
        <mxCell id="_WUSgy6V6YuaI1692tL7-33" value="makefile" style="rounded=1;whiteSpace=wrap;html=1;" vertex="1" parent="1">
          <mxGeometry x="130" y="610" width="70" height="40" as="geometry" />
        </mxCell>
        <mxCell id="_WUSgy6V6YuaI1692tL7-34" value="cargo" style="rounded=1;whiteSpace=wrap;html=1;" vertex="1" parent="1">
          <mxGeometry x="220" y="610" width="70" height="40" as="geometry" />
        </mxCell>
        <mxCell id="_WUSgy6V6YuaI1692tL7-35" value="docker" style="rounded=1;whiteSpace=wrap;html=1;" vertex="1" parent="1">
          <mxGeometry x="310" y="610" width="70" height="40" as="geometry" />
        </mxCell>
        <mxCell id="_WUSgy6V6YuaI1692tL7-36" value="compose" style="rounded=1;whiteSpace=wrap;html=1;" vertex="1" parent="1">
          <mxGeometry x="395" y="610" width="80" height="40" as="geometry" />
        </mxCell>
        <mxCell id="_WUSgy6V6YuaI1692tL7-37" value="k8s" style="rounded=1;whiteSpace=wrap;html=1;" vertex="1" parent="1">
          <mxGeometry x="490" y="610" width="70" height="40" as="geometry" />
        </mxCell>
        <mxCell id="_WUSgy6V6YuaI1692tL7-38" value="……" style="rounded=1;whiteSpace=wrap;html=1;" vertex="1" parent="1">
          <mxGeometry x="310" y="650" width="70" height="40" as="geometry" />
        </mxCell>
        <mxCell id="_WUSgy6V6YuaI1692tL7-39" value="项目构建" style="text;html=1;strokeColor=none;fillColor=none;align=center;verticalAlign=middle;whiteSpace=wrap;rounded=0;" vertex="1" parent="1">
          <mxGeometry x="85" y="580" width="75" height="30" as="geometry" />
        </mxCell>
      </root>
    </mxGraphModel>
  </diagram>
</mxfile>
